<?xml version="1.0" encoding="utf-8"?>
<!-- Generator: Adobe Illustrator 19.2.1, SVG Export Plug-In . SVG Version: 6.00 Build 0)  -->
<svg version="1.1" id="layer" xmlns="http://www.w3.org/2000/svg" xmlns:xlink="http://www.w3.org/1999/xlink" x="0px" y="0px"
	 viewBox="0 0 652 652" style="enable-background:new 0 0 652 652;" xml:space="preserve">
<style type="text/css">
	.st0{fill:#C02424;}
</style>
<g>
	<polygon class="st0" points="121.8,387.4 145.6,327.8 145.6,244.1 121.8,303.6 	"/>
	<polygon class="st0" points="181.7,272.5 181.7,356.2 128,390.6 162.4,338.4 162.4,284.8 	"/>
	<polygon class="st0" points="131.2,396.8 194.7,371.2 194.7,306.5 212.7,306.5 212.7,396.8 	"/>
	<polygon class="st0" points="111.2,387.4 87.4,327.8 87.4,244.1 111.2,303.6 	"/>
	<polygon class="st0" points="51.3,272.5 51.3,356.2 105,390.6 70.6,338.4 70.6,284.8 	"/>
	<polygon class="st0" points="101.7,396.8 38.3,371.2 38.3,306.5 20.4,306.5 20.4,396.8 	"/>
</g>
<g>
	<path class="st0" d="M480.1,264.1c0,5.3,5,9.7,11.3,9.7c6.2,0,11.2-4.3,11.2-9.7c0-5.3-5-9.7-11.2-9.7
		C485.2,254.4,480.1,258.8,480.1,264.1z"/>
	<path class="st0" d="M432.7,263.3c-1.8-0.1-4.1-0.4-5-0.4c-9.8,0-12,2.8-12,9v8.8h18.8h3.1v-4.2c0-8.5,1-15.1,8.5-19.6
		c6.9-4.2,17.6-4.8,25.3-4.8c1.8,0,4.5,0.1,7.3,0.3c-2.7,2.2-5,6.2-5.3,10.8c-1.7-0.3-3.8-0.4-4.6-0.4c-9.4,0-10.4,3.9-10.4,9v8.8
		h43v55.8h-21v-44.8h-22v44.8h-21v-44.4h-3.1h-18.8v44.6l0,0h-21v-44.6h-8.1v-11.3h8.1v-4.2c0-8.5,1-15.1,8.5-19.6
		c7-4.2,19.9-5,29.7-5c3.2,0,5.9,0.1,8.4,0.3C436.9,255.1,434.1,259.1,432.7,263.3z"/>
	<path class="st0" d="M346,279.1c-7.7,0-11.3,7.1-13.2,13.4v-11.9h-21v55.8h21v-26.9c0-8.5,4.8-16.4,11.3-16.4c2.1,0,4.2,0.6,6.3,1
		v-14.7C349.5,279.2,347.6,279.1,346,279.1z"/>
	<rect x="357.1" y="280.6" class="st0" width="21" height="55.8"/>
	<path class="st0" d="M356.2,264.1c0,5.3,5,9.7,11.2,9.7s11.3-4.3,11.3-9.7c0-5.3-5-9.7-11.3-9.7
		C361.3,254.4,356.2,258.8,356.2,264.1z"/>
	<path class="st0" d="M555.8,325c-3.9,0.7-7.6,0.7-8.5,0.7c-10.1,0-9.9-7-9.9-14.8v-18.9h18.5v-11.3h-18.5v-25.3l0,0h-21v25.5h-8.1
		v11.3h8.1v21.6c0,8.5,1,15.1,8.5,19.6c7,4.2,15.5,4.8,23.2,4.8c1.7,0,4.5-0.1,7.7-0.3V325z"/>
	<path class="st0" d="M616.3,286.1c-4.5-5-10.5-7-17.1-7c-5.3,0-11.2,1.1-15.3,5.2v-29h-21v81.3h21v-34.8c0-5.7,1.3-10.1,7.3-10.1
		c5.5,0,7.4,2.8,7.4,11.9c0,3.6,0,33,0,33h21v-33.4C619.7,297.3,620.5,290.7,616.3,286.1z"/>
	<path class="st0" d="M302.4,272.2c-6.9-3.5-15.3-4.8-22.1-4.8c-17.6,0-27,10.2-27,25.1c0,15.1,5.3,32.6,23.1,32.6
		c1.5,0,3.4,0,4.9-0.4v-31.1h21.1v40.4c-8.5,2.4-17.4,3.8-26.2,3.8c-25.6,0-46.3-14.6-46.3-41.8c0-27.7,19.9-43,50.7-43
		c3.6,0,14.3,1.3,21.8,3.4L302.4,272.2z"/>
</g>
<path d="M471.7,360.7c0,2.7-0.8,4.8-2.7,6.3c-1.7,1.5-4.1,2.7-7.1,3.1c-1.4,0.1-4.1,0.3-7.8,0.3h-8v-18.5h12c2.9,0,5,0.1,6.3,0.4
	c1.7,0.3,3.2,0.8,4.3,2C470.7,356,471.7,358.1,471.7,360.7z M481.1,396.8l-8.1-17.1c-1.7-3.4-4.3-6.2-6.3-6.4
	c2.7-0.4,5.6-2.1,6.9-3.4c2.4-2.2,3.6-5.3,3.6-9c0-4.1-1.4-7.4-4.3-10.2c-1.8-1.7-4.2-2.7-7.3-3.2c-1.5-0.1-4.3-0.3-8.1-0.3h-16.4
	v49.4h5.3v-21.7H457c4.1,0,7,0.7,8.5,2.1c0.7,0.7,1.5,1.8,2.4,3.4c0.3,0.6,0.8,1.8,1.8,3.8l6,12.6H481.1z"/>
<path d="M268.1,392.7c-3.2,3.2-8.8,4.8-14.6,4.8s-11.2-1.7-14.6-4.9c-2.4-2.2-3.8-5.3-4.3-9c-0.3-1.4-0.4-4.8-0.4-10.4v-26h5.3v31.2
	c0,5.3,1,9,3.1,10.9c2.5,2.2,6.9,3.5,11.2,3.5c3.9,0,8.1-1,10.4-3.1c2.1-2.1,3.4-5.3,3.5-9.7c0-1,0-2.7,0-5.2v-27.7h5.3v27.2
	c0,4.8-0.1,8.1-0.4,9.8C271.7,387.8,270.3,390.6,268.1,392.7z"/>
<path d="M318.9,396.8l-30.1-40.6l0.1,40.6h-5.2v-49.5h5.7l30.5,41.1v-41.1h5.2v49.4h-6.3V396.8z"/>
<path d="M335.7,396.8v-49.5h5.5v49.4h-5.5V396.8z"/>
<path d="M372.8,396.8h-6.2l-18.8-49.5h6.2l16,43.4l16.4-43.4h5.7L372.8,396.8z"/>
<path d="M397.7,396.8v-49.5h33.9v4.8H403v16.4h25.9v4.6H403v18.8h30.1v4.9h-35.4V396.8z"/>
<path d="M514.4,355.5c-0.3-0.3-2.1-2.4-5.7-3.5c-1.7-0.6-3.6-0.8-5.9-0.8c-3.6,0-6.3,0.7-8.4,2.2c-2,1.5-2.9,3.5-2.9,5.7
	c0,2.9,2.1,5.5,6.4,7.4c2.8,1,5.7,2.1,8.5,3.1c3.4,1.3,5.9,2.8,7.6,4.2c2.8,2.5,4.2,5.6,4.2,9.1c0,4.2-1.4,7.8-4.2,10.5
	c-3.1,2.8-7.6,4.2-13.2,4.2c-9.7,0-15.1-4.8-16.2-5.7l3.2-3.8c0.6,0.4,6.2,4.6,13,4.6c3.9,0,6.9-0.6,8.8-2.4c2-1.7,3.1-4.2,3.1-7.1
	c0-2.7-1.5-5-4.6-7c-1.4-0.8-4.6-2.1-8.8-3.8c-4.2-1.5-7.1-3.1-9-4.5c-2.7-2.2-4.1-5.2-4.1-8.7c0-3.8,1.5-6.7,4.5-9.1
	c2.9-2.4,6.9-3.5,11.6-3.5c3.2,0,5.7,0.4,7.8,1.1c4.6,1.5,7,4.1,7.7,4.8L514.4,355.5z"/>
<path d="M527.4,396.8v-49.5h5.5v49.4h-5.5V396.8z"/>
<path d="M560,352v44.6h-5.3V352h-15.1v-4.8h34.7v4.8H560z"/>
<path d="M601.5,376.6v20h-5.3v-20L577,347.2h6.4l15.5,23.8l15.1-23.8h6.3L601.5,376.6z"/>
</svg>
